<?xml version="1.0" encoding="UTF-8" standalone="no"?>
<svg
   xmlns:dc="http://purl.org/dc/elements/1.1/"
   xmlns:cc="http://creativecommons.org/ns#"
   xmlns:rdf="http://www.w3.org/1999/02/22-rdf-syntax-ns#"
   xmlns:svg="http://www.w3.org/2000/svg"
   xmlns="http://www.w3.org/2000/svg"
   xmlns:sodipodi="http://sodipodi.sourceforge.net/DTD/sodipodi-0.dtd"
   xmlns:inkscape="http://www.inkscape.org/namespaces/inkscape"
   width="566.69659"
   height="436.8685"
   viewBox="0 0 149.93849 115.58812"
   version="1.1"
   id="svg1599"
   inkscape:export-filename="/home/dome_/Logo_wihteBackground.png"
   inkscape:export-xdpi="96"
   inkscape:export-ydpi="96"
   inkscape:version="1.0.2 (e86c870, 2021-01-15)"
   sodipodi:docname="final_logo.svg">
  <defs
     id="defs1593">
    <marker
       style="overflow:visible"
       id="marker5111"
       refX="0"
       refY="0"
       orient="auto"
       inkscape:stockid="DotM"
       inkscape:isstock="true">
      <path
         transform="matrix(0.4,0,0,0.4,2.96,0.4)"
         style="fill:#333333;fill-opacity:0.992157;fill-rule:evenodd;stroke:#333333;stroke-width:1pt;stroke-opacity:1"
         d="m -2.5,-1 c 0,2.76 -2.24,5 -5,5 -2.76,0 -5,-2.24 -5,-5 0,-2.76 2.24,-5 5,-5 2.76,0 5,2.24 5,5 z"
         id="path5109" />
    </marker>
    <marker
       style="overflow:visible"
       id="marker5101"
       refX="0"
       refY="0"
       orient="auto"
       inkscape:stockid="DotM"
       inkscape:isstock="true">
      <path
         transform="matrix(0.4,0,0,0.4,2.96,0.4)"
         style="fill:#333333;fill-opacity:0.992157;fill-rule:evenodd;stroke:#000000;stroke-width:1pt;stroke-opacity:1"
         d="m -2.5,-1 c 0,2.76 -2.24,5 -5,5 -2.76,0 -5,-2.24 -5,-5 0,-2.76 2.24,-5 5,-5 2.76,0 5,2.24 5,5 z"
         id="path5099" />
    </marker>
    <marker
       style="overflow:visible"
       id="marker5091"
       refX="0"
       refY="0"
       orient="auto"
       inkscape:stockid="DotM"
       inkscape:isstock="true">
      <path
         transform="matrix(0.4,0,0,0.4,2.96,0.4)"
         style="fill:#333333;fill-opacity:0.992157;fill-rule:evenodd;stroke:#333333;stroke-width:1pt;stroke-opacity:1"
         d="m -2.5,-1 c 0,2.76 -2.24,5 -5,5 -2.76,0 -5,-2.24 -5,-5 0,-2.76 2.24,-5 5,-5 2.76,0 5,2.24 5,5 z"
         id="path5089" />
    </marker>
    <marker
       style="overflow:visible"
       id="marker5081"
       refX="0"
       refY="0"
       orient="auto"
       inkscape:stockid="DotM"
       inkscape:isstock="true">
      <path
         transform="matrix(0.4,0,0,0.4,2.96,0.4)"
         style="fill:#333333;fill-opacity:0.992157;fill-rule:evenodd;stroke:#000000;stroke-width:1pt;stroke-opacity:1"
         d="m -2.5,-1 c 0,2.76 -2.24,5 -5,5 -2.76,0 -5,-2.24 -5,-5 0,-2.76 2.24,-5 5,-5 2.76,0 5,2.24 5,5 z"
         id="path5079" />
    </marker>
    <marker
       style="overflow:visible"
       id="marker5071"
       refX="0"
       refY="0"
       orient="auto"
       inkscape:stockid="DotM"
       inkscape:isstock="true">
      <path
         transform="matrix(0.4,0,0,0.4,2.96,0.4)"
         style="fill:#333333;fill-opacity:0.992157;fill-rule:evenodd;stroke:#333333;stroke-width:1pt;stroke-opacity:1"
         d="m -2.5,-1 c 0,2.76 -2.24,5 -5,5 -2.76,0 -5,-2.24 -5,-5 0,-2.76 2.24,-5 5,-5 2.76,0 5,2.24 5,5 z"
         id="path5069" />
    </marker>
    <marker
       style="overflow:visible"
       id="marker5061"
       refX="0"
       refY="0"
       orient="auto"
       inkscape:stockid="DotM"
       inkscape:isstock="true">
      <path
         transform="matrix(0.4,0,0,0.4,2.96,0.4)"
         style="fill:#333333;fill-opacity:0.992157;fill-rule:evenodd;stroke:#000000;stroke-width:1pt;stroke-opacity:1"
         d="m -2.5,-1 c 0,2.76 -2.24,5 -5,5 -2.76,0 -5,-2.24 -5,-5 0,-2.76 2.24,-5 5,-5 2.76,0 5,2.24 5,5 z"
         id="path5059" />
    </marker>
    <marker
       style="overflow:visible"
       id="marker3374"
       refX="0"
       refY="0"
       orient="auto"
       inkscape:stockid="DotM"
       inkscape:isstock="true">
      <path
         transform="matrix(0.4,0,0,0.4,2.96,0.4)"
         style="fill:#333333;fill-opacity:0.992157;fill-rule:evenodd;stroke:#000000;stroke-width:1pt;stroke-opacity:1"
         d="m -2.5,-1 c 0,2.76 -2.24,5 -5,5 -2.76,0 -5,-2.24 -5,-5 0,-2.76 2.24,-5 5,-5 2.76,0 5,2.24 5,5 z"
         id="path3372" />
    </marker>
    <marker
       style="overflow:visible"
       id="marker3250"
       refX="0"
       refY="0"
       orient="auto"
       inkscape:stockid="DotM"
       inkscape:isstock="true">
      <path
         transform="matrix(0.4,0,0,0.4,2.96,0.4)"
         style="fill:#333333;fill-opacity:0.992157;fill-rule:evenodd;stroke:#000000;stroke-width:1pt;stroke-opacity:1"
         d="m -2.5,-1 c 0,2.76 -2.24,5 -5,5 -2.76,0 -5,-2.24 -5,-5 0,-2.76 2.24,-5 5,-5 2.76,0 5,2.24 5,5 z"
         id="path3248" />
    </marker>
    <marker
       style="overflow:visible"
       id="DotL"
       refX="0"
       refY="0"
       orient="auto"
       inkscape:stockid="DotL"
       inkscape:isstock="true">
      <path
         transform="matrix(0.8,0,0,0.8,5.92,0.8)"
         style="fill:#333333;fill-opacity:0.992157;fill-rule:evenodd;stroke:#000000;stroke-width:1pt;stroke-opacity:1"
         d="m -2.5,-1 c 0,2.76 -2.24,5 -5,5 -2.76,0 -5,-2.24 -5,-5 0,-2.76 2.24,-5 5,-5 2.76,0 5,2.24 5,5 z"
         id="path2122" />
    </marker>
    <marker
       style="overflow:visible"
       id="DotM-3"
       refX="0"
       refY="0"
       orient="auto"
       inkscape:stockid="DotM"
       inkscape:isstock="true">
      <path
         transform="matrix(0.4,0,0,0.4,2.96,0.4)"
         style="fill:#333333;fill-opacity:0.992157;fill-rule:evenodd;stroke:#000000;stroke-width:1pt;stroke-opacity:1"
         d="m -2.5,-1 c 0,2.76 -2.24,5 -5,5 -2.76,0 -5,-2.24 -5,-5 0,-2.76 2.24,-5 5,-5 2.76,0 5,2.24 5,5 z"
         id="path2125-6" />
    </marker>
    <marker
       style="overflow:visible"
       id="marker3570"
       refX="0"
       refY="0"
       orient="auto"
       inkscape:stockid="DotM"
       inkscape:isstock="true">
      <path
         transform="matrix(0.4,0,0,0.4,2.96,0.4)"
         style="fill:#333333;fill-opacity:0.992157;fill-rule:evenodd;stroke:#000000;stroke-width:1pt;stroke-opacity:1"
         d="m -2.5,-1 c 0,2.76 -2.24,5 -5,5 -2.76,0 -5,-2.24 -5,-5 0,-2.76 2.24,-5 5,-5 2.76,0 5,2.24 5,5 z"
         id="path3568" />
    </marker>
    <marker
       style="overflow:visible"
       id="marker3374-5-9"
       refX="0"
       refY="0"
       orient="auto"
       inkscape:stockid="DotM"
       inkscape:isstock="true">
      <path
         transform="matrix(0.4,0,0,0.4,2.96,0.4)"
         style="fill:#333333;fill-opacity:0.992157;fill-rule:evenodd;stroke:#000000;stroke-width:1pt;stroke-opacity:1"
         d="m -2.5,-1 c 0,2.76 -2.24,5 -5,5 -2.76,0 -5,-2.24 -5,-5 0,-2.76 2.24,-5 5,-5 2.76,0 5,2.24 5,5 z"
         id="path3372-3-1" />
    </marker>
    <marker
       style="overflow:visible"
       id="marker3250-5-2"
       refX="0"
       refY="0"
       orient="auto"
       inkscape:stockid="DotM"
       inkscape:isstock="true">
      <path
         transform="matrix(0.4,0,0,0.4,2.96,0.4)"
         style="fill:#333333;fill-opacity:0.992157;fill-rule:evenodd;stroke:#000000;stroke-width:1pt;stroke-opacity:1"
         d="m -2.5,-1 c 0,2.76 -2.24,5 -5,5 -2.76,0 -5,-2.24 -5,-5 0,-2.76 2.24,-5 5,-5 2.76,0 5,2.24 5,5 z"
         id="path3248-6-7" />
    </marker>
    <marker
       style="overflow:visible"
       id="marker4211"
       refX="0"
       refY="0"
       orient="auto"
       inkscape:stockid="DotM"
       inkscape:isstock="true">
      <path
         transform="matrix(0.4,0,0,0.4,2.96,0.4)"
         style="fill:#333333;fill-opacity:0.992157;fill-rule:evenodd;stroke:#000000;stroke-width:1pt;stroke-opacity:1"
         d="m -2.5,-1 c 0,2.76 -2.24,5 -5,5 -2.76,0 -5,-2.24 -5,-5 0,-2.76 2.24,-5 5,-5 2.76,0 5,2.24 5,5 z"
         id="path4209" />
    </marker>
    <marker
       style="overflow:visible"
       id="marker3374-5-93"
       refX="0"
       refY="0"
       orient="auto"
       inkscape:stockid="DotM"
       inkscape:isstock="true">
      <path
         transform="matrix(0.4,0,0,0.4,2.96,0.4)"
         style="fill:#333333;fill-opacity:1;fill-rule:evenodd;stroke:#333333;stroke-width:1pt;stroke-opacity:1"
         d="m -2.5,-1 c 0,2.76 -2.24,5 -5,5 -2.76,0 -5,-2.24 -5,-5 0,-2.76 2.24,-5 5,-5 2.76,0 5,2.24 5,5 z"
         id="path3372-3-6" />
    </marker>
    <marker
       style="overflow:visible"
       id="marker3250-5-0"
       refX="0"
       refY="0"
       orient="auto"
       inkscape:stockid="DotM"
       inkscape:isstock="true">
      <path
         transform="matrix(0.4,0,0,0.4,2.96,0.4)"
         style="fill:#333333;fill-opacity:1;fill-rule:evenodd;stroke:#333333;stroke-width:1pt;stroke-opacity:1"
         d="m -2.5,-1 c 0,2.76 -2.24,5 -5,5 -2.76,0 -5,-2.24 -5,-5 0,-2.76 2.24,-5 5,-5 2.76,0 5,2.24 5,5 z"
         id="path3248-6-6" />
    </marker>
    <marker
       style="overflow:visible"
       id="marker4729"
       refX="0"
       refY="0"
       orient="auto"
       inkscape:stockid="DotM"
       inkscape:isstock="true">
      <path
         transform="matrix(0.4,0,0,0.4,2.96,0.4)"
         style="fill:#333333;fill-opacity:0.992157;fill-rule:evenodd;stroke:#000000;stroke-width:1pt;stroke-opacity:1"
         d="m -2.5,-1 c 0,2.76 -2.24,5 -5,5 -2.76,0 -5,-2.24 -5,-5 0,-2.76 2.24,-5 5,-5 2.76,0 5,2.24 5,5 z"
         id="path4727" />
    </marker>
    <marker
       style="overflow:visible"
       id="marker5071-6"
       refX="0"
       refY="0"
       orient="auto"
       inkscape:stockid="DotM"
       inkscape:isstock="true">
      <path
         transform="matrix(0.4,0,0,0.4,2.96,0.4)"
         style="fill:#333333;fill-opacity:0.992157;fill-rule:evenodd;stroke:#333333;stroke-width:1pt;stroke-opacity:1"
         d="m -2.5,-1 c 0,2.76 -2.24,5 -5,5 -2.76,0 -5,-2.24 -5,-5 0,-2.76 2.24,-5 5,-5 2.76,0 5,2.24 5,5 z"
         id="path5069-1" />
    </marker>
    <marker
       style="overflow:visible"
       id="marker5091-8"
       refX="0"
       refY="0"
       orient="auto"
       inkscape:stockid="DotM"
       inkscape:isstock="true">
      <path
         transform="matrix(0.4,0,0,0.4,2.96,0.4)"
         style="fill:#333333;fill-opacity:0.992157;fill-rule:evenodd;stroke:#333333;stroke-width:1pt;stroke-opacity:1"
         d="m -2.5,-1 c 0,2.76 -2.24,5 -5,5 -2.76,0 -5,-2.24 -5,-5 0,-2.76 2.24,-5 5,-5 2.76,0 5,2.24 5,5 z"
         id="path5089-7" />
    </marker>
    <marker
       style="overflow:visible"
       id="marker5111-9"
       refX="0"
       refY="0"
       orient="auto"
       inkscape:stockid="DotM"
       inkscape:isstock="true">
      <path
         transform="matrix(0.4,0,0,0.4,2.96,0.4)"
         style="fill:#333333;fill-opacity:0.992157;fill-rule:evenodd;stroke:#333333;stroke-width:1pt;stroke-opacity:1"
         d="m -2.5,-1 c 0,2.76 -2.24,5 -5,5 -2.76,0 -5,-2.24 -5,-5 0,-2.76 2.24,-5 5,-5 2.76,0 5,2.24 5,5 z"
         id="path5109-2" />
    </marker>
    <marker
       style="overflow:visible"
       id="marker3374-5-93-2"
       refX="0"
       refY="0"
       orient="auto"
       inkscape:stockid="DotM"
       inkscape:isstock="true">
      <path
         transform="matrix(0.4,0,0,0.4,2.96,0.4)"
         style="fill:#333333;fill-opacity:1;fill-rule:evenodd;stroke:#333333;stroke-width:1pt;stroke-opacity:1"
         d="m -2.5,-1 c 0,2.76 -2.24,5 -5,5 -2.76,0 -5,-2.24 -5,-5 0,-2.76 2.24,-5 5,-5 2.76,0 5,2.24 5,5 z"
         id="path3372-3-6-3" />
    </marker>
    <marker
       style="overflow:visible"
       id="marker3250-5-0-7"
       refX="0"
       refY="0"
       orient="auto"
       inkscape:stockid="DotM"
       inkscape:isstock="true">
      <path
         transform="matrix(0.4,0,0,0.4,2.96,0.4)"
         style="fill:#333333;fill-opacity:1;fill-rule:evenodd;stroke:#333333;stroke-width:1pt;stroke-opacity:1"
         d="m -2.5,-1 c 0,2.76 -2.24,5 -5,5 -2.76,0 -5,-2.24 -5,-5 0,-2.76 2.24,-5 5,-5 2.76,0 5,2.24 5,5 z"
         id="path3248-6-6-5" />
    </marker>
    <marker
       style="overflow:visible"
       id="marker7346"
       refX="0"
       refY="0"
       orient="auto"
       inkscape:stockid="DotM"
       inkscape:isstock="true">
      <path
         transform="matrix(0.4,0,0,0.4,2.96,0.4)"
         style="fill:#333333;fill-opacity:0.992157;fill-rule:evenodd;stroke:#000000;stroke-width:1pt;stroke-opacity:1"
         d="m -2.5,-1 c 0,2.76 -2.24,5 -5,5 -2.76,0 -5,-2.24 -5,-5 0,-2.76 2.24,-5 5,-5 2.76,0 5,2.24 5,5 z"
         id="path7344" />
    </marker>
  </defs>
  <sodipodi:namedview
     id="base"
     pagecolor="#ffffff"
     bordercolor="#666666"
     borderopacity="1.0"
     inkscape:pageopacity="1"
     inkscape:pageshadow="2"
     inkscape:zoom="1"
     inkscape:cx="277.64717"
     inkscape:cy="319.27186"
     inkscape:document-units="px"
     inkscape:current-layer="layer1"
     inkscape:document-rotation="0"
     showgrid="false"
     showborder="false"
     inkscape:object-nodes="false"
     inkscape:snap-intersection-paths="false"
     fit-margin-top="0"
     fit-margin-left="0"
     fit-margin-right="0"
     fit-margin-bottom="0"
     lock-margins="false"
     inkscape:window-width="1652"
     inkscape:window-height="1016"
     inkscape:window-x="148"
     inkscape:window-y="27"
     inkscape:window-maximized="0"
     showguides="true"
     inkscape:guide-bbox="true"
     units="px" />
  <metadata
     id="metadata1596">
    <rdf:RDF>
      <cc:Work
         rdf:about="">
        <dc:format>image/svg+xml</dc:format>
        <dc:type
           rdf:resource="http://purl.org/dc/dcmitype/StillImage" />
        <dc:title></dc:title>
      </cc:Work>
    </rdf:RDF>
  </metadata>
  <g
     inkscape:label="Layer 1"
     inkscape:groupmode="layer"
     id="layer1"
     transform="translate(1302.0541,92.557628)">
    <rect
       style="fill:none;fill-rule:evenodd;stroke:none;stroke-width:1.53458;stroke-miterlimit:4;stroke-dasharray:none;stroke-dashoffset:50;stroke-opacity:1"
       id="rect2294"
       width="88.573021"
       height="56.650196"
       x="-331.17932"
       y="-45.387329"
       rx="1.5187401"
       ry="2.4484382" />
    <g
       id="g8591"
       inkscape:export-xdpi="96"
       inkscape:export-ydpi="96"
       transform="translate(-1177.6238,-19.134499)">
      <path
         id="rect2250-7"
         style="fill:none;fill-rule:evenodd;stroke:#333333;stroke-width:2.57292;stroke-miterlimit:4;stroke-dasharray:none;stroke-dashoffset:50;stroke-opacity:1"
         d="m -93.264556,-19.019056 c -0.84157,-0.002 -1.37541,1.087022 -1.197858,2.441712 l 7.068817,53.930557 18.106905,-48.410997 51.630956,-0.33538 -0.659908,-5.03587 c -0.177308,-1.354688 -0.998109,-2.446272 -1.83968,-2.447912 z m 43.654189,-51.695085 c -0.62367,-0.0041 -1.20964,0.205039 -1.64435,0.639755 L -122.50308,1.1739777 c -0.99363,0.993635 -0.81054,2.776315 0.41031,3.997171 l 34.431493,34.4314913 0.26717,-1.189593 5.1e-4,-0.0015 c 1.5e-4,-0.357161 0.0734,-0.765112 0.22893,-1.19941 l 16.53646,-46.1687596 c 0.50596,-1.4126394 1.6783,-2.5503054 2.62878,-2.5507474 l 73.4539148,-0.03411 c 3.54e-4,0 6.77e-4,0 0.001,0 0.949683,2.94e-4 1.307275,1.137087 0.801503,2.5492004 L -10.278951,37.176996 c -0.245039,0.684152 -0.647005,1.301835 -1.103808,1.759064 l -0.394292,1.183391 35.358048,-35.3580483 c 0.993636,-0.993635 0.810546,-2.776318 -0.410311,-3.99717197 L -47.257567,-69.664027 c -0.68673,-0.686731 -1.55096,-1.044823 -2.35283,-1.050066 z"
         inkscape:export-xdpi="96"
         inkscape:export-ydpi="96"
         inkscape:export-filename="/home/dome_/rect2250-7.png" />
      <path
         style="fill:#333333;fill-opacity:0.992157;stroke:#333333;stroke-width:1.77078;stroke-linecap:butt;stroke-linejoin:miter;stroke-miterlimit:4;stroke-dasharray:none;stroke-opacity:1;marker-start:url(#marker5071);marker-mid:url(#marker5091);marker-end:url(#marker5111);paint-order:normal"
         d="m -49.673457,-69.338532 c -1.583269,131.922092 0,0 0,0 z"
         id="path2059-7-2" />
      <path
         id="path2059-7-2-2"
         style="fill:#333333;fill-opacity:1;stroke:#333333;stroke-width:1.34421;stroke-linecap:butt;stroke-linejoin:miter;stroke-miterlimit:4;stroke-dasharray:none;stroke-opacity:1;marker-start:url(#marker3374-5-93);marker-mid:url(#marker3250-5-0);marker-end:url(#marker3374-5-93);paint-order:normal"
         d="m -25.030177,-47.376604 c -49.24289,28.936324 0,0 0,0 z m -24.709011,14.711547 c 48.93964839,-29.422095 0,0 0,0 z" />
      <path
         id="path2059-7-2-2-9"
         style="fill:#333333;fill-opacity:1;stroke:#333333;stroke-width:1.32292;stroke-linecap:butt;stroke-linejoin:miter;stroke-miterlimit:4;stroke-dasharray:none;stroke-opacity:1;marker-start:url(#marker3374-5-93-2);marker-mid:url(#marker3250-5-0-7);marker-end:url(#marker3374-5-93-2);paint-order:normal"
         d="m -49.752171,-32.586404 c -46.420365,-29.970948 0,0 0,0 z m -23.446017,-14.95932 c 46.664786,29.511534 0,0 0,0 z" />
      <path
         style="fill:#ff7f2a;fill-opacity:0.992157;fill-rule:evenodd;stroke:#333333;stroke-width:5;stroke-miterlimit:4;stroke-dasharray:none;stroke-dashoffset:50;stroke-opacity:1;paint-order:normal"
         d="m 142.10334,387.52498 c -0.61051,-2.78132 -23.61083,-178.88777 -23.61083,-180.78101 0,-0.92965 18.04511,-1.20486 79,-1.20486 h 79 v 9 9 l -32.25,0.011 c -17.7375,0.006 -33.825,0.27892 -35.75,0.60638 -2.74743,0.46735 -4.11646,1.55283 -6.36699,5.04828 -1.57685,2.4491 -8.46383,20.06373 -15.30441,39.14362 -35.43024,98.82277 -42.64613,118.81503 -43.3758,120.17658 -0.61616,1.14973 -0.91974,0.92351 -1.34197,-1 z"
         id="path8230"
         transform="matrix(0.26458334,0,0,0.26458334,-124.43028,-72.000655)" />
      <path
         style="fill:#ff7f2a;fill-opacity:0.992157;fill-rule:evenodd;stroke:#333333;stroke-width:5;stroke-miterlimit:4;stroke-dasharray:none;stroke-dashoffset:50;stroke-opacity:1;paint-order:normal"
         d="m 283.49251,217.66411 c 0,-3.23125 0.28125,-7.28125 0.625,-9 l 0.625,-3.125 h 26.21231 c 14.41677,0 39.11269,0.29749 54.87983,0.66109 l 28.66753,0.66109 0.89386,3.58891 c 0.49163,1.9739 1.15585,5.72641 1.47604,8.33891 l 0.58217,4.75 h -56.98087 -56.98087 z"
         id="path8232"
         transform="matrix(0.26458334,0,0,0.26458334,-124.43028,-72.000655)" />
    </g>
  </g>
</svg>
